# xmcd
# 
# Track frame offsets:
#     150
#     75538
#     82493
#     120531
#     193921
#     249697
#     303810
# 
# Disc length: 4472
# 
# Revision: 0
# Processed by: cddbd v1.5.2PL0 Copyright (c) Steve Scherf et al.
# Submitted via: BonkEnc v1.0.8
# 
DISCID=59117607
DTITLE=Jonathan Hayes - Martyrium CD 3
DYEAR=2008
DGENRE=Hörbuch
TTITLE0=Martyrium 3-1
TTITLE1=Martyrium 3-2
TTITLE2=Martyrium 3-3
TTITLE3=Martyrium 3-4
TTITLE4=Martyrium 3-5
TTITLE5=Martyrium 3-6
TTITLE6=Martyrium 3-7
EXTD=
EXTT0=
EXTT1=
EXTT2=
EXTT3=
EXTT4=
EXTT5=
EXTT6=
PLAYORDER=
